FILE "Asteroids Terra (2018)(Nova32 Animation Studios)(MX)(en).bin" BINARY
  TRACK 01 MODE1/2352
    INDEX 01 00:00:00
  TRACK 02 AUDIO
    PREGAP 00:02:00
    INDEX 01 00:10:24
  TRACK 03 AUDIO
    INDEX 01 01:44:39
  TRACK 04 AUDIO
    INDEX 01 03:40:43
  TRACK 05 AUDIO
    INDEX 01 06:33:46
  TRACK 06 AUDIO
    INDEX 01 09:58:49
  TRACK 07 AUDIO
    INDEX 01 13:30:38
